<?xml version="1.0" encoding="utf-8"?>
<svg version="1.1" id="Layer_1" xmlns="http://www.w3.org/2000/svg" xmlns:xlink="http://www.w3.org/1999/xlink" x="0px" y="0px"
	 viewBox="0 0 2280.067 1646.086" enable-background="new 0 0 2280.067 1646.086" xml:space="preserve">
<path d="M2129.067,830.128c42.644-59.107,67.786-131.679,67.786-210.131c0-259.61-266.858-432.555-502.906-329.817
	c-75.747-54.693-169.528-76.742-261.851-61.949c-21.234-116.703-123.389-205.189-246.219-205.189
	c-122.181,0-223.895,87.557-245.866,203.344c-229.544-191.489-581.348-2.784-541.762,298.727
	C200.735,506.486,31.918,661.707,31.918,858.132c0,171.537,129.116,312.894,295.46,332.247
	c-53.444,345.443,370.186,547.453,606.966,299.698c138.459,114.259,346.778,91.73,456.524-55.185
	c87.232,114.345,224.895,188.151,379.818,188.151C2183.791,1623.043,2397.584,1134.949,2129.067,830.128z"/>
</svg>
