<svg id="e0TvbYoWEt11" xmlns="http://www.w3.org/2000/svg" xmlns:xlink="http://www.w3.org/1999/xlink" viewBox="0 0 1400 498.15" shape-rendering="geometricPrecision" text-rendering="geometricPrecision"><rect width="1400" height="1000" rx="0" ry="0" transform="translate(0-500)" fill="#fff"/><rect width="1400" height="500" rx="0" ry="0"/><g><path d="M651.07,348.86l4.77-22.35l4.17,22.05l7.86,10.61v-42.12l.84-.76-1.62-.3v-.06h.3v-15.64l.48-1.62h-1.08l-10.07-6.71v-2.64h1.08v-.42h-1.08v-1.56h-.6v1.56h-1.08v.42h1.08v2.57l-9.47,6.78h-1.62l.48,1.62v15.64h-1.14l.66,1.04-.66,42.2l6.7-10.31Zm1.89-42.23c0-1.88,1.52-3.41,3.41-3.41c1.88,0,3.41,1.53,3.41,3.41v7.38h-6.81v-7.38Z" fill="#fff"/><path d="M726.47,371.21l6.85-56.02l9.54,53.64l7.15,3.68-1.5-127.54v-4.02-15.92h-4.71v-60.95h-1.62v60.95h-3.09v15.92h-1.85v-2.23h-9.23l.1-5.82h6.2v-2.74h-38.91v2.74h11.68l-2.62,5.82h-11.99v2.23h-2.32l-1.83,133.84h31.01l7.14-3.58Zm.71-138.32l-.1,5.82h-6.25l-.09-5.82h6.44Zm-21.69,5.83l2.62-5.82h5.4l3.17,5.82h-11.19Zm9.1-5.83h5.22l.1,5.82h-2.15l-3.17-5.82Z" fill="#fff"/><path d="M840.15,366.39l.76-.15.77.1l18.33,2.35l6.25-2.41l34.17-13.17.03-.01.03-.01c3.23-1.19,6.98-1.8,11.17-1.8c6.47,0,11.99,1.46,12.74,1.66l32.05,8.14c2.67.17,11.43.8,14.99,1.95c4.32,1.39,15.13,6.05,20.85,9.48l-2.66-113-29.91-4.81-33.09,10.32-3.18,76.29v-82.82l6.02-2.48v-7.51l-26.64-2.75-26.64,2.75v7.32l7.13,2.67v85.99l-3.58-80.26-33.8-9.53-29.91,4.81-1.96,111.4l26.08-4.52Z" fill="#fff"/><path d="M1349.71,443.91l-37.2-24.67v-6.51l.71-.38-8.38-2.48v-12.16h.59l-16.53-9.92v-12.99l.59-1.06L1275.2,365h-.23v-18.13h.77l-8.79-10.23v-6.12h.77v-.42h-.77v-1.12h-.24v1.12h-.77v.42h.77v6.12l-8.79,10.23h.76v18.13h-.23l-14.29,8.74.59,1.06v12.99l-16.53,9.92h.59v12.16l-7.06,2.09-1.46,20.94-1.37-41.47l1.51-2.75h-1.51v-22.69l1.51-2.22h-1.28v-2.87l-.23-2.26-1.05-2.26-1.21-.76h-.75l-.6-2.56-1.66-.91v-1.06l-1.21-1.81v-5.04-1-.7l.53-.68v-1.36l-1.02-.56-.17-1.81-1.47-.96c-.28-6.17-6.06-7.7-6.06-7.7s-5.89,1.47-6.46,7.7l-1.24.57v1.81l-1.08,1.08v1.64l.66,1.13v4.69l-2.19-.82v-2.78l.51-1.23c-2.38-1.89-2.38-1.89-2.38-1.89v-1.41l-.9-.85v-3.46l.9-.23v-1.07l-2.32-2.21v-3.17c0,0-1.02.8-1.08.51-2.09-12-9.14-14.11-14.04-16.36l-1.74-2.28c.25-.15.42-.43.42-.75c0-.43-.3-.78-.7-.86v-.56c.17-.07.29-.24.29-.45c0-.2-.12-.38-.29-.45v-2.64h-.35v2.64c-.17.07-.29.24-.29.45c0,.2.12.38.29.45v.56c-.4.08-.7.44-.7.86c0,.34.19.62.46.77l-1.44,2.26c-4.89,2.25-11.94,4.36-14.04,16.36-.05.29-1.07-.51-1.07-.51v3.17l-2.32,2.21v1.07l.91.23v3.46l-.91.85v1.41c0,0,0,0-2.38,1.89l.51,1.23v2.78l-2.19.82v-4.69l.66-1.13v-1.64l-1.08-1.08v-1.81l-1.25-.57c-.57-6.23-6.45-7.7-6.45-7.7s-5.78,1.53-6.06,7.7l-1.47.96-.17,1.81-1.02.56v1.36l.53.68v.7v1v5.04l-1.21,1.81v1.06l-1.66.91-.6,2.56h-.75l-1.21.76-1.06,2.26-.22,2.26v2.87h-1.28l1.51,2.22v22.69h-1.51l1.51,2.75-4.06,42.36-3.41-40.23v-1.28h-1.14v-6.62h1.14v-53.22-7.08-17.36h-109.19v24.44h1.83h73.78l1.14,53.22-5.71-48.66-69.21-4.57v7.54h-1.83v52.31v15.76h1.83h19.87h56.42v11.19l-3.66-7.54-72.64-3.66-2.77,25.74-7.42-14.55v-29.62l-8.01-4.51v-4.76c0,0-16.96-10.73-23.28-12.76-3.42-1.1-14.27-1.75-14.27-1.75l-32.54-8.26c0,0-11.89-3.38-21.03,0l-34.17,13.17c13.88-.34,50.83-.77,55.7,4.1c0,0-5.13-3.75-63.08-1.25l-19.52-2.5-34.29,6.76v41.41l-6.12,13.66-9.84-221.31h3.21v-1.79h-3.25l-.04-1.45c14.05-.49,24.59-2.52,24.59-4.95c0-.58-.61-1.14-1.71-1.66.5-.95.82-2.22.82-3.63c0-2.92-1.33-5.29-2.98-5.29s-2.98,2.37-2.98,5.29c0,.78.1,1.51.27,2.17-1.2-.25-2.53-.48-3.99-.69v-12.95c6.48-.93,10.57-2.29,10.57-3.8c0-1.13-2.27-2.17-6.11-3.01v-17.54h-.74v17.38c-4.37-.88-10.52-1.52-17.57-1.78v-31.69h-3.13v-10.72h-.6v-3.58h2.76v-1.64h-3.24v-4.17h-1.08v-53.01h-1.12-1.04-1.12v53.02h-1.08v4.17h-3.24v1.64h2.76v3.58h-.6v10.72h-3.13v31.69c-7.05.25-13.21.89-17.57,1.78v-17.38h-.75v17.54c-3.83.84-6.1,1.88-6.1,3.01c0,1.51,4.09,2.87,10.57,3.8v12.95c-1.46.21-2.79.44-3.99.69.17-.66.27-1.4.27-2.17c0-2.92-1.33-5.29-2.98-5.29-1.64,0-2.98,2.37-2.98,5.29c0,1.41.31,2.68.82,3.63-1.1.52-1.71,1.08-1.71,1.66c0,2.43,10.54,4.46,24.59,4.95l-.04,1.45h-3.25v1.79h3.21l-6.86,220.12-6.95-12.47v-26.96l-.02-.01l2.59.01-23.89-18.09-4.5,1.3-.03-.69.33-.01-.02-.61-.61.02-.18-5l.27-.08-.02-.39.33-.01-.03-.72-.91.04-.12-4.11.27-.23-.01-.33.27-.12-.01-.39-.77.03-.13-3.49.16-.14-.03-.67-.47-.15-1.69-19.49-.08-.06v-.43c.18-.04.32-.2.32-.39s-.14-.35-.32-.38v-2.85h-.18v2.86c-.17.04-.29.2-.29.38s.12.33.29.38v.38l-.08.06-1.24,19.52-.47.16-.01.67.16.14-.05,3.5-.77-.01-.01.39.28.11v.33l.27.23-.03,4.11-.91-.01-.01.72h.33l-.01.39.28.08-.07,5-.61-.01-.01.61.33.01-.04,2.5-6.23,1.8-2.52,2.35h-2.92l-1.02-1.36-1.46,1.36h-13.31l-1.03-1.36-1.97,1.36h-12.29l-1.26-1.99-2.48,1.99h-10.93l-1.81-1.99-2.63,1.99h-3.77v-10.51l.96-1.54-10.87-19.27v-.49h.48v-.74h-.48v-4.55h-.42v4.55h-.45v.74h.45v.61l-9.45,15.32l3.6,13.16-4.19-10.73-4.94,11.78-18.58-19.48-18.4,19.84l20.08,51.23-49-102.23c1.07-1.21,1.73-2.79,1.73-4.53c0-2.78-1.66-5.16-4.04-6.23v-5.5l1.73-1.73l8.07-2.11.19-1.54h-19.61-3.08-19.61l.19,1.54l8.07,2.11l1.73,1.73v5.5c-2.38,1.07-4.03,3.45-4.03,6.23c0,1.74.65,3.33,1.72,4.53l-21.81,46.4h3.59l15.99-30.73c1.2,1.74,3.21,2.88,5.48,2.88.42,0,.83-.04,1.22-.11v3.93h-4.66v15.19h-2.11v10.19h-24.97v.67l-17.48,14.16-11.92,42.02-5.52-14.55l3.64-33.14l18.8-11.45v-29.39L393.62,365.76l-95.02-9.8v32.67l22.57,12.28v18.35h-14.91c-6.13-.77-18.6-2.29-24.74-2.96l-41.06-37.97.72-.23-2.77-4.7-3.73,3.42.46.66c-3.76,1.37-13.96,4.8-28.27,7.55v-.14c-.14.03-.29.04-.44.05v.18c-8.2,1.55-17.73,2.88-28.16,3.45v-.07c-.15,0-.3-.02-.44-.05v.14c-3.48.19-7.05.29-10.71.29-5.63,0-11.46-.24-17.42-.79v-.04c-.05,0-.11.01-.16.01-.09,0-.19-.01-.28-.02v0c-4.65-.44-9.39-1.07-14.19-1.92-.03-.01-.06-.02-.08-.03v.01c-10.19-1.81-20.63-4.62-31.08-8.74l.38-.55-3.73-3.42-2.77,4.7.22.07-47.72,43.27c18.27-2.09,37.75-3.72,56.08-4.84-.41-1.41-.82-2.87-1.22-4.37-13.79.85-27.56,1.98-41.31,3.38l36.02-36.87.3.1c2.82,31.21,14.26,57.99,16.23,62.41h-2.64v2.66h7.98v-2.66h-2.86v-.01c0,0-7.33-30.89-15.81-62.64l.47-.68c5.82,2.3,11.65,4.19,17.43,5.74h-.23l-.2,27.73c-2.58.12-5.16.25-7.75.39.38,1.5.74,2.96,1.1,4.38c37.05-1.99,74.19-1.99,111.24,0c.35-1.42.72-2.88,1.1-4.38-1.74-.1-3.48-.18-5.22-.27l.21-29.06c7.05-1.85,12.04-3.57,14.35-4.42l.39.56c-8.48,31.75-15.81,62.64-15.81,62.64v.01h-2.87v2.66h7.98v-2.66h-2.64c1.96-4.41,13.37-31.11,16.22-62.26l35.72,36.56c-13.55-1.37-27.11-2.48-40.69-3.32-.4,1.5-.81,2.95-1.22,4.37c15.61.95,31.2,2.26,46.76,3.92l.09.09.07-.07c5.84.62,11.67,1.3,17.5,2.02L277.99,443.9h1071.72Zm-77.05-97.04h1.36v14.23h-1.36v-14.23Zm-4.02,0h2.95v14.23h-2.95v-14.23Zm-2.3,0h.18.23.13.23.29v14.23h-.52-.13-.41v-14.23Zm-4.31,0h3.31v14.23h-3.31v-14.23Zm-2.42,0h1.36v14.23h-1.36v-14.23ZM1032,392.29l-.69-52.31l5.48,47.74l79.72,4.57h-28.78-55.73ZM735.86,374.27l-1.11.04v-.04h-.08l-.14-3.82.01-.96.25-.24.38-.18.34.16.18.27.17,4.77Zm-.23-6.18l-1.04.04.03-4.14.16-.26.38-.04.31.24.16,4.16Zm-1.12-8.79l.25-.04.17.08.12.25.24,3.35-.64.02v-.04h-.23v0l-.02-3.26.11-.36Zm-1.2.24l.11-.25.17-.08.25.03.13.36.05,3.3-.88-.01.17-3.35Zm-.34,4.36l.31-.25.38.03.16.25.02.47.11,3.67-1.04-.02.06-4.15Zm-.08,5.57l.17-.28.33-.16.38.17.25.23v.12l.03.9-.05,3.8-1.18-.02.07-4.76Zm-91.82,10.4l-.06.75-.71-.75h.77Zm-74.73-28.3h-10.91v-5.82c1.17-1.2,1.9-2.84,1.9-4.65h2.38h2.35h2.38c0,1.81.72,3.45,1.9,4.65v5.82Zm-13.21-12.4l1.68-2.51c.73.68,1.29,1.54,1.62,2.51h-3.3Zm12.21,0c.32-.97.89-1.83,1.62-2.51l1.68,2.51h-3.3Zm2.07-2.86l-.24.16c.99-.84,2.25-1.37,3.63-1.43l-.03,4.14h-1.45l-1.91-2.87Zm9.16,8.56l44.7,86.54-24.77-39.43-7.91,9.17h.72L583.42,432l-4.47-65.25h-2.88v-15.19h-6.2v-3.93c.4.08.8.11,1.22.11c2.28.01,4.28-1.13,5.48-2.87Zm-2.5-16.25l-1.73-3.67h3.14c-.06,1.39-.58,2.66-1.41,3.67Zm-2.04-9.55c.91.46,1.69,1.12,2.28,1.94l-.19-.22-2.09,1.78v-3.5Zm0,4.26l2.44-2.08c.6.91.96,1.98,1.01,3.12h-3.41l-.04-.1v-.94Zm-.65,11.7c.03,0,.05,0,.08.01l2.15,4.13h-2.26l.03-4.14Zm-6.55-5.95c-.17-.17-.32-.34-.47-.53l.61.03-.33.28.19.22Zm-1.79-5.15c.16-1.33.73-2.54,1.59-3.48l3.19,3.44-4.78.04Zm2.01-3.87c.82-.74,1.82-1.29,2.95-1.52v4.7l-2.95-3.18Zm.76,8.56l.74.04l2.4,1.71v.54c-1.5-.07-2.87-.67-3.92-1.62l.78-.67Zm-12.04-17.99l7.11-.16l7.11.16v7.33c-2.94.54-5.22,2.97-5.53,5.98l-1.58.01-1.58-.01c-.32-3.01-2.6-5.44-5.54-5.98v-7.33Zm3.02,17.95l.61-.03c-.15.18-.3.36-.47.53l.19-.22-.33-.28Zm-2.84-4.69l3.18-3.44c.86.94,1.43,2.15,1.59,3.48l-4.77-.04Zm-.18-5.35c1.12.23,2.13.77,2.95,1.52l-2.95,3.18v-4.7Zm-.96,11.83l2.4-1.71.74-.04.78.66c-1.04.95-2.41,1.56-3.92,1.62v-.53Zm-3.08-11.3v3.49l-2.09-1.78-.19.22c.6-.8,1.38-1.47,2.28-1.93Zm-2.44,2.18l2.44,2.08v.95l-.04.1h-3.41c.06-1.16.42-2.23,1.01-3.13Zm-1.01,3.7h3.14l-1.72,3.67c-.84-1.01-1.35-2.28-1.42-3.67Zm1.87,14.22l2.15-4.13c.03,0,.05,0,.08-.01l.03,4.14h-2.26Zm2.46-4.72l1.55-2.97c.02,0,.05,0,.07,0v.01h.58v-.01c2.22-.09,4.17-1.24,5.34-2.96l2.73-.13l2.73.13c1.18,1.72,3.12,2.87,5.34,2.96v.01h.58v-.01c.03,0,.05,0,.07,0l1.54,2.97c-.02,0-.04,0-.06,0-3.01,0-5.54,1.99-6.37,4.73h-2.67-2.35-2.66c-.83-2.74-3.36-4.73-6.37-4.73-.01,0-.03,0-.05,0Zm.38,4.72l-.03-4.14c1.38.07,2.65.59,3.63,1.43l-.24-.16-1.91,2.87h-1.45ZM485.3,388.28l-2.87,22.31-7-16.29l9.87-6.02Zm-16.23,9.89l2.83-1.72l8.9,22.8h-11.73v-21.08ZM62.8,415.71c-1.67.17-3.34.35-5.01.53l40.94-37.86.41.13-36.34,37.2Zm38.31-33.56c-.1.03-.2-.04-.23-.14-.02-.1.04-.2.14-.23s.2.04.23.14c.02.1-.04.21-.14.23Zm.64,2.93c-.15.04-.31-.05-.34-.21-.04-.15.05-.3.21-.34.15-.04.31.05.34.2.04.15-.06.31-.21.35Zm.19,2.64c-.05-.2.07-.41.27-.46s.41.07.46.27-.07.41-.27.46c-.21.06-.41-.06-.46-.27Zm12.64,47.6c.1-.03.2.03.23.14.03.1-.04.2-.14.23s-.2-.03-.23-.13c-.02-.11.04-.21.14-.24Zm-.83-2.87c.15-.04.3.05.34.2s-.05.31-.2.34c-.15.04-.3-.05-.34-.21-.04-.14.05-.3.2-.33Zm-.82-2.88c.2-.05.41.07.46.27s-.07.41-.27.46-.41-.07-.46-.27c-.06-.21.06-.41.27-.46Zm-.26-2.54c.06.25-.09.51-.34.57s-.51-.09-.57-.34.09-.51.34-.57.51.09.57.34Zm-.71-2.81c.08.3-.11.61-.41.69s-.61-.1-.69-.41c-.08-.3.11-.61.41-.69.31-.07.61.11.69.41Zm-.71-2.8c.09.35-.12.71-.48.8-.35.09-.71-.13-.8-.48s.12-.71.48-.8c.35-.09.71.12.8.48Zm-.71-2.81c.1.4-.14.81-.55.92-.4.1-.81-.14-.92-.55-.1-.4.14-.82.55-.92s.82.14.92.55Zm-.71-2.81c.11.46-.16.92-.62,1.03-.45.11-.92-.16-1.03-.62-.11-.45.16-.92.62-1.03.45-.11.91.16,1.03.62Zm-.71-2.81c.13.51-.18,1.02-.68,1.15s-1.02-.18-1.15-.68.18-1.02.68-1.15c.51-.13,1.02.18,1.15.68Zm-.71-2.81c.14.56-.2,1.12-.75,1.26-.56.14-1.12-.2-1.26-.75-.14-.56.2-1.12.75-1.26s1.11.2,1.26.75Zm-.76-2.98c.14.55-.2,1.12-.75,1.26s-1.12-.2-1.26-.75c-.14-.56.19-1.12.75-1.26.55-.15,1.12.19,1.26.75Zm-.71-2.81c.13.5-.18,1.02-.68,1.15s-1.02-.18-1.15-.68.18-1.02.68-1.15c.51-.13,1.02.17,1.15.68Zm-.72-2.81c.12.46-.16.92-.61,1.03-.46.12-.92-.16-1.03-.61s.16-.92.61-1.03c.46-.12.92.15,1.03.61Zm-.71-2.81c.1.4-.14.81-.55.92-.4.1-.81-.14-.92-.55-.1-.4.14-.81.55-.92.41-.1.82.15.92.55Zm-.71-2.81c.09.36-.12.71-.48.8-.35.09-.71-.12-.8-.48-.09-.35.12-.71.48-.8.35-.08.71.13.8.48Zm-.71-2.8c.08.3-.11.61-.41.69-.3.07-.61-.11-.69-.41s.11-.61.41-.69c.31-.08.61.1.69.41Zm-.71-2.81c.06.25-.09.51-.34.57-.25.07-.51-.09-.57-.34s.09-.51.34-.57c.25-.07.51.09.57.34Zm31.44,20.46c-4.62.15-9.23.34-13.85.56l.2-27.66c4.64,1.23,9.26,2.24,13.82,3.05l-.17,24.05Zm14.29-.38c-4.62.09-9.23.21-13.85.36l.17-23.96c4.67.82,9.29,1.42,13.83,1.85l-.15,21.75Zm14.29-.18c-4.62.03-9.23.09-13.85.17l.15-21.69c4.71.43,9.33.68,13.84.76l-.14,20.76Zm14.28.02c-4.62-.04-9.23-.04-13.84-.02l.15-20.75c1.05.02,2.1.03,3.14.03c3.66,0,7.23-.1,10.7-.29l-.15,21.03Zm14.29.2c-4.61-.1-9.23-.17-13.84-.21l.15-21.05c4.83-.27,9.46-.69,13.85-1.22l-.16,22.48Zm14.29.41c-4.61-.16-9.23-.29-13.84-.4l.16-22.55c4.94-.61,9.58-1.35,13.86-2.16l-.18,25.11Zm14.28.61c-4.61-.23-9.23-.42-13.84-.59l.18-25.21c5.2-.99,9.86-2.08,13.87-3.12l-.21,28.92Zm3.78,24.2c-.1-.03-.16-.13-.14-.23.03-.1.13-.16.23-.14.1.03.16.13.14.23-.03.1-.13.16-.23.14Zm.78-2.7c-.15-.04-.24-.19-.21-.34.04-.15.19-.24.34-.2s.25.19.21.34-.19.24-.34.2Zm1.24-2.97c-.05.2-.26.33-.46.27-.2-.05-.32-.26-.27-.46s.25-.33.46-.27c.19.06.32.26.27.46Zm.89-2.76c-.06.25-.32.41-.57.34s-.4-.32-.34-.57.32-.41.57-.34c.25.06.4.32.34.57Zm.89-2.76c-.08.3-.39.49-.69.41s-.49-.39-.41-.69.38-.49.69-.41.49.39.41.69Zm.9-2.76c-.09.35-.45.57-.8.48s-.57-.45-.48-.8.45-.57.8-.48.57.45.48.8Zm.89-2.76c-.1.4-.51.65-.92.55-.4-.1-.65-.51-.55-.92s.51-.65.92-.55.65.51.55.92Zm.9-2.76c-.12.46-.58.73-1.03.62-.45-.12-.73-.58-.62-1.03.12-.45.58-.73,1.03-.61.46.1.73.56.62,1.02Zm.89-2.76c-.13.5-.64.81-1.15.68-.5-.13-.81-.64-.68-1.15.13-.5.64-.81,1.15-.68.5.13.81.64.68,1.15Zm.89-2.77c-.14.56-.71.89-1.26.75-.56-.14-.89-.71-.75-1.26.14-.56.71-.89,1.26-.75.56.14.9.71.75,1.26Zm.76-2.98c-.14.55-.7.89-1.26.75s-.89-.71-.75-1.26c.14-.56.71-.89,1.26-.75.56.13.89.7.75,1.26Zm.53-2.86c-.13.5-.64.81-1.15.68s-.81-.64-.68-1.15.64-.81,1.15-.68c.5.13.81.65.68,1.15Zm.53-2.85c-.12.45-.58.73-1.03.61-.46-.11-.73-.58-.61-1.03.11-.46.58-.73,1.03-.62.45.12.72.58.61,1.04Zm.53-2.86c-.1.4-.51.65-.92.55-.4-.1-.65-.51-.55-.92s.51-.65.92-.55c.4.11.65.52.55.92Zm.53-2.85c-.09.35-.45.57-.8.48s-.57-.45-.48-.8.45-.57.8-.48.56.45.48.8Zm.52-2.85c-.08.3-.38.48-.69.41-.3-.08-.49-.39-.41-.69s.39-.49.69-.41c.31.07.49.38.41.69Zm.53-2.86c-.06.25-.32.41-.57.34-.25-.06-.41-.32-.34-.57.06-.25.32-.41.57-.34.25.06.41.32.34.57Zm.53-2.86c-.05.2-.26.32-.46.27s-.32-.26-.27-.46.26-.33.46-.27.32.26.27.46Zm.19-2.64c-.15-.04-.24-.19-.21-.34.04-.15.19-.24.34-.2s.24.19.21.34c-.04.14-.19.23-.34.2Zm.64-2.93c-.1-.03-.16-.13-.14-.23.03-.1.13-.16.23-.14.1.03.16.13.14.23-.03.11-.13.17-.23.14Zm37.68,33.5l-36.15-37l.33-.11l40.68,37.62c-1.61-.17-3.24-.35-4.86-.51Z" fill="#fff"/></g><g transform="translate(.000001 0)"><path d="M175.15,189.68c3.31.4,4.48-1.98,6.75-2.94c3.12,1.72,5.22,4.24,5.74,7.96-.52,1.11-1.86,1.16-3.13,1.29-.65,1.76-3.06,1.23-3.41,3.37c1.4.52,1.68-.41,2.98-.03c5.12,3.62,10.59,2.08,15.18.71c2.24-.67,4.68-.79,5.8-2.21.35-1.69-.84-.33-1.61-.64c1.9-1.6,4.37-2.45,7.16-2.88c6.39,3.71,12.07,7.98,16.99,12.83.97-1.06-.8-2.11-1.34-2.72-2.12-2.4-5.28-4.31-8.47-6.62-1.71-1.24-3.77-2.79-5.82-4.15-2.45-1.62-4.44-3.37-6.76-3.43-3.49-.09-5.81,3.92-9.83,3.8-1.55-.93-1.71-2.94-2.84-4.19-4.89-2.55-11.79-8.08-18.33-5.79-1.28,1.75-.45,4.72.94,5.64Z" fill="#fff"/><path d="M247.95,260.96c.72-1.4,1.39-2.71,2.42-3.68c2.11-.63,4.45-1,6.13-2.08c1.29.21.81,2.09,1.2,3.15c3.09.58,5.28-1.22,5.39-4.4-.74-.07-2.54-.02-3.42-.44-.09-.47.93-1.41,1.38-2.08.13-.18.2-.42.35-.64.61-.93,1.45-2.41,2.56-3.03c1.5.04,2.89-.19,4.1-.35c1.08-.14,2.5,0,3.3-.87-.43-1.19-2.23-1.31-3.71-1.6-1.49-.29-3.25-.67-4.73-.65-1.39.02-2.55.56-3.62.69-.43.69-.33,1.58-.57,2.27-.79,2.3-2.42,3.66-5.52,3.58-.57-.05-.56.54-1,.62-.24.25-.86.1-.84.63.42.27,1.37-.17,1.62.54-1,.63-2.58.63-4.27.51-.54.19-1.1.82-1.52,1.42-.88,1.28-1.66,3.74-2,5.82-.24,1.45-.44,3.11.18,4.26c1.37-.64,1.89-2.35,2.57-3.67Z" fill="#fff"/><path d="M290.52,261.17c1.69,1.13,3.08,2.49,4.81,3.59.69.34.26,1.54,1.26,1.64.14-2.04-.32-3.61-1.04-4.99c1.16-2.36,4.45-2.24,6.93-2.89.45-.12.97-.28,1.53-.43.65-.18,1.67-.41,2.42-.74c1.13-.5,1.44-.85,2.14-1.83-.05-.27-.21-.46-.57-.5-.93-.21-1.82.28-2.6.5-.77.22-1.57.31-2.6.5-.44.08-1.05.39-1.54.43-1.55.13-3.18-.28-4.65.02-1.5.31-2.97,1.44-4.66,1.71-1.08-.16-.63-1.51-1.68-1.7-1.14.37-2.42.57-3.87.55.12.97,1.62.88,2.12,1.54-.55.35-1.38.32-2.16.35-1.62,1.29-3.78,1.57-6.01,2.38-.59.21-1.53.36-1.83,1.03c4.56,1.3,8.71-.01,12-1.16Z" fill="#fff"/></g></svg>
