<?xml version="1.0" encoding="utf-8"?>
<!-- Generator: Adobe Illustrator 26.1.0, SVG Export Plug-In . SVG Version: 6.00 Build 0)  -->
<svg version="1.1" id="Layer_1" xmlns="http://www.w3.org/2000/svg" xmlns:xlink="http://www.w3.org/1999/xlink" x="0px" y="0px"
	 viewBox="0 0 1400 500" style="enable-background:new 0 0 1400 500;" xml:space="preserve">
<style type="text/css">
	.st0{fill:#FFFFFF;}
</style>
<rect class="st0" width="1400" height="1000"/>
<g>
	<path d="M175.15,193.21c3.31,0.4,4.48-1.98,6.75-2.94c3.13,1.72,5.22,4.24,5.74,7.96c-0.52,1.11-1.85,1.16-3.13,1.28
		c-0.65,1.76-3.06,1.23-3.41,3.37c1.4,0.52,1.68-0.41,2.98-0.03c5.12,3.62,10.59,2.08,15.18,0.71c2.24-0.67,4.68-0.79,5.8-2.21
		c0.35-1.69-0.84-0.34-1.61-0.64c1.9-1.6,4.37-2.45,7.16-2.88c6.39,3.71,12.07,7.98,16.99,12.83c0.97-1.07-0.8-2.11-1.34-2.72
		c-2.12-2.4-5.28-4.31-8.47-6.62c-1.71-1.24-3.77-2.79-5.82-4.15c-2.45-1.62-4.44-3.37-6.76-3.43c-3.49-0.09-5.81,3.92-9.83,3.8
		c-1.55-0.93-1.71-2.94-2.84-4.19c-4.89-2.55-11.79-8.08-18.33-5.79C172.93,189.31,173.76,192.28,175.15,193.21z"/>
	<path d="M247.95,264.48c0.72-1.4,1.39-2.71,2.42-3.68c2.11-0.63,4.45-1,6.13-2.08c1.29,0.21,0.81,2.09,1.2,3.15
		c3.09,0.58,5.28-1.22,5.39-4.4c-0.74-0.08-2.54-0.02-3.42-0.44c-0.09-0.47,0.93-1.41,1.38-2.08c0.13-0.18,0.2-0.42,0.35-0.64
		c0.61-0.93,1.45-2.42,2.56-3.03c1.5,0.04,2.89-0.19,4.1-0.35c1.08-0.14,2.5,0,3.3-0.87c-0.43-1.19-2.23-1.31-3.71-1.6
		c-1.49-0.3-3.25-0.68-4.73-0.65c-1.39,0.02-2.55,0.56-3.62,0.69c-0.43,0.69-0.33,1.57-0.57,2.27c-0.79,2.3-2.42,3.66-5.52,3.58
		c-0.57-0.05-0.56,0.53-1,0.62c-0.24,0.25-0.86,0.1-0.84,0.63c0.42,0.27,1.37-0.17,1.62,0.54c-1,0.63-2.58,0.63-4.27,0.51
		c-0.53,0.19-1.1,0.82-1.52,1.42c-0.88,1.28-1.66,3.74-2,5.82c-0.24,1.45-0.44,3.11,0.18,4.26
		C246.75,267.51,247.27,265.8,247.95,264.48z"/>
	<path d="M290.52,264.69c1.69,1.13,3.08,2.49,4.81,3.59c0.69,0.34,0.26,1.54,1.26,1.64c0.14-2.04-0.32-3.61-1.04-4.99
		c1.16-2.36,4.45-2.24,6.93-2.9c0.45-0.12,0.97-0.27,1.53-0.43c0.65-0.18,1.67-0.41,2.42-0.74c1.13-0.5,1.44-0.85,2.14-1.83
		c-0.05-0.27-0.21-0.46-0.57-0.5c-0.93-0.21-1.82,0.28-2.6,0.5c-0.77,0.22-1.57,0.31-2.6,0.5c-0.44,0.08-1.05,0.39-1.54,0.44
		c-1.55,0.13-3.18-0.28-4.65,0.02c-1.5,0.31-2.97,1.44-4.66,1.71c-1.09-0.16-0.63-1.51-1.68-1.7c-1.14,0.37-2.42,0.57-3.87,0.55
		c0.12,0.97,1.62,0.88,2.12,1.54c-0.55,0.35-1.38,0.32-2.16,0.35c-1.62,1.29-3.78,1.57-6.01,2.38c-0.59,0.21-1.53,0.36-1.82,1.03
		C283.07,267.15,287.23,265.84,290.52,264.69z"/>
	<path d="M651.07,352.38l4.77-22.35l4.17,22.05l7.86,10.61v-42.12l0.84-0.76l-1.62-0.3v-0.06h0.3v-15.64l0.48-1.62h-1.08
		l-10.07-6.71v-2.64h1.08v-0.42h-1.08v-1.56h-0.6v1.56h-1.08v0.42h1.08v2.57l-9.47,6.78h-1.62l0.48,1.62v15.64h-1.14l0.66,1.04
		l-0.66,42.2L651.07,352.38z M652.96,310.16c0-1.88,1.52-3.41,3.41-3.41c1.88,0,3.41,1.53,3.41,3.41v7.38h-6.81V310.16z"/>
	<path d="M726.47,374.73l6.85-56.02l9.54,53.64l7.15,3.68l-1.5-127.54v-4.02v-15.92h-4.71v-60.95h-1.62v60.95h-3.09v15.92h-1.85
		v-2.23h-9.23l0.1-5.82h6.2v-2.74H695.4v2.74h11.68l-2.62,5.82h-11.99v2.23h-2.32l-1.83,133.84h31.01L726.47,374.73z M727.18,236.42
		l-0.1,5.82h-6.25l-0.09-5.82H727.18z M705.49,242.24l2.62-5.82h5.4l3.17,5.82H705.49z M714.59,236.42h5.22l0.1,5.82h-2.15
		L714.59,236.42z"/>
	<path d="M840.15,369.92l0.76-0.15l0.77,0.1l18.33,2.35l6.25-2.41l34.17-13.17l0.03-0.01l0.03-0.01c3.23-1.19,6.98-1.8,11.17-1.8
		c6.47,0,11.99,1.46,12.74,1.66l32.05,8.14c2.67,0.17,11.43,0.8,14.99,1.95c4.32,1.39,15.13,6.05,20.85,9.48l-2.66-113l-29.91-4.81
		l-33.09,10.32l-3.18,76.29v-82.81l6.02-2.48v-7.51l-26.64-2.75l-26.64,2.75v7.32l7.13,2.67v85.99l-3.58-80.26l-33.8-9.53
		l-29.91,4.81l-1.96,111.4L840.15,369.92z"/>
	<path d="M1349.71,447.44l-37.2-24.67v-6.51l0.71-0.38l-8.38-2.48v-12.16h0.59l-16.53-9.92v-12.99l0.59-1.06l-14.29-8.74h-0.23
		V350.4h0.77l-8.79-10.23v-6.12h0.77v-0.41h-0.77v-1.12h-0.24v1.12h-0.77v0.41h0.77v6.12l-8.79,10.23h0.76v18.13h-0.23l-14.29,8.74
		l0.59,1.06v12.99l-16.53,9.92h0.59v12.16l-7.06,2.09l-1.46,20.94l-1.37-41.47l1.51-2.75h-1.51v-22.69l1.51-2.22h-1.28v-2.87
		l-0.23-2.26l-1.05-2.27l-1.21-0.75h-0.75l-0.6-2.57l-1.66-0.91v-1.06l-1.21-1.81v-5.04v-1v-0.7l0.53-0.68v-1.36l-1.02-0.57
		l-0.17-1.81l-1.47-0.96c-0.28-6.17-6.06-7.7-6.06-7.7s-5.89,1.47-6.46,7.7l-1.24,0.57v1.81l-1.08,1.08v1.64l0.66,1.13v4.69
		l-2.19-0.82v-2.78l0.51-1.23c-2.38-1.89-2.38-1.89-2.38-1.89v-1.41l-0.9-0.85v-3.46l0.9-0.23v-1.08l-2.32-2.21v-3.17
		c0,0-1.02,0.8-1.08,0.51c-2.09-12-9.14-14.11-14.04-16.36l-1.74-2.28c0.25-0.15,0.42-0.43,0.42-0.75c0-0.43-0.3-0.78-0.7-0.86
		v-0.56c0.17-0.07,0.29-0.24,0.29-0.45c0-0.2-0.12-0.37-0.29-0.44v-2.64h-0.35v2.64c-0.17,0.07-0.29,0.24-0.29,0.44
		c0,0.2,0.12,0.38,0.29,0.45v0.56c-0.4,0.08-0.7,0.44-0.7,0.86c0,0.34,0.19,0.62,0.46,0.77l-1.44,2.26
		c-4.89,2.25-11.94,4.36-14.04,16.36c-0.05,0.29-1.07-0.51-1.07-0.51v3.17l-2.32,2.21v1.08l0.91,0.23v3.46l-0.91,0.85v1.41
		c0,0,0,0-2.38,1.89l0.51,1.23v2.78l-2.19,0.82v-4.69l0.66-1.13v-1.64l-1.08-1.08v-1.81l-1.25-0.57c-0.57-6.23-6.45-7.7-6.45-7.7
		s-5.78,1.53-6.06,7.7l-1.47,0.96l-0.17,1.81l-1.02,0.57v1.36l0.53,0.68v0.7v1v5.04l-1.21,1.81v1.06l-1.66,0.91l-0.6,2.57h-0.75
		l-1.21,0.75l-1.06,2.27l-0.22,2.26v2.87h-1.28l1.51,2.22v22.69h-1.51l1.51,2.75l-4.06,42.36l-3.41-40.23v-1.28h-1.14v-6.62h1.14
		v-53.22v-7.08v-17.36h-109.19v24.44h1.83h73.78l1.14,53.22l-5.71-48.66l-69.21-4.57v7.54h-1.83v52.31v15.76h1.83h19.87h56.42v11.19
		l-3.66-7.54l-72.64-3.66l-2.77,25.74l-7.42-14.55v-29.64l-8.01-4.5v-4.76c0,0-16.96-10.73-23.28-12.76
		c-3.42-1.1-14.27-1.75-14.27-1.75l-32.54-8.26c0,0-11.89-3.38-21.03,0l-34.17,13.17c13.88-0.34,50.83-0.77,55.7,4.1
		c0,0-5.13-3.75-63.08-1.25l-19.52-2.5l-34.29,6.76v41.41l-6.12,13.66l-9.84-221.31h3.21v-1.79h-3.25l-0.04-1.45
		c14.05-0.49,24.59-2.52,24.59-4.95c0-0.58-0.61-1.14-1.71-1.66c0.5-0.95,0.82-2.22,0.82-3.63c0-2.92-1.33-5.29-2.98-5.29
		c-1.65,0-2.98,2.37-2.98,5.29c0,0.78,0.1,1.51,0.27,2.17c-1.2-0.25-2.53-0.48-3.99-0.69v-12.95c6.48-0.93,10.57-2.29,10.57-3.8
		c0-1.13-2.27-2.17-6.11-3.01v-17.54h-0.74v17.38c-4.37-0.88-10.52-1.52-17.57-1.78v-31.69h-3.13v-10.72h-0.6v-3.57h2.76v-1.64
		h-3.24v-4.17h-1.08V76.62h-1.12h-1.04h-1.12v53.02h-1.08v4.17h-3.24v1.64h2.76v3.57h-0.6v10.72h-3.13v31.69
		c-7.05,0.25-13.21,0.89-17.57,1.78v-17.38h-0.75v17.54c-3.83,0.84-6.1,1.88-6.1,3.01c0,1.51,4.09,2.87,10.57,3.8v12.95
		c-1.46,0.21-2.79,0.44-3.99,0.69c0.17-0.66,0.27-1.4,0.27-2.17c0-2.92-1.33-5.29-2.98-5.29c-1.64,0-2.98,2.37-2.98,5.29
		c0,1.41,0.31,2.68,0.82,3.63c-1.1,0.52-1.71,1.08-1.71,1.66c0,2.43,10.54,4.46,24.59,4.95l-0.04,1.45h-3.25v1.79h3.21l-6.86,220.12
		l-6.95-12.47v-26.94l-0.02-0.01l2.59,0.01l-23.89-18.09l-4.5,1.3l-0.03-0.69l0.33-0.01l-0.02-0.61l-0.61,0.02l-0.18-5l0.27-0.08
		l-0.01-0.39l0.33-0.01l-0.03-0.72l-0.91,0.03l-0.13-4.11l0.27-0.23l-0.01-0.33l0.27-0.12l-0.01-0.39l-0.77,0.03l-0.13-3.49
		l0.16-0.14l-0.03-0.67l-0.47-0.15l-1.69-19.49l-0.08-0.06v-0.43c0.18-0.04,0.32-0.2,0.32-0.39c0-0.19-0.14-0.35-0.32-0.39v-2.85
		h-0.18v2.86c-0.17,0.04-0.29,0.2-0.29,0.38s0.12,0.33,0.29,0.38v0.38l-0.08,0.06l-1.24,19.52l-0.47,0.16l-0.01,0.67l0.16,0.14
		l-0.05,3.5l-0.77-0.01l-0.01,0.39l0.27,0.11l0,0.33l0.27,0.23l-0.03,4.11l-0.91-0.01l-0.01,0.72l0.33,0.01l0,0.39l0.28,0.08
		l-0.07,5.01l-0.61-0.01l-0.01,0.61l0.33,0.01l-0.04,2.51l-6.23,1.8l-2.52,2.35h-2.92l-1.02-1.36l-1.46,1.36h-13.31l-1.03-1.36
		l-1.97,1.36h-12.29l-1.26-1.99l-2.48,1.99h-10.93l-1.81-1.99l-2.63,1.99h-3.77V374.5l0.96-1.54l-10.87-19.27v-0.49h0.48v-0.74
		h-0.48v-4.55h-0.41v4.55h-0.45v0.74h0.45v0.61l-9.45,15.32l3.6,13.16l-4.19-10.73l-4.94,11.78l-18.58-19.48l-18.4,19.84
		l20.08,51.23l-49.01-102.21c1.07-1.21,1.73-2.79,1.73-4.53c0-2.77-1.66-5.16-4.04-6.23v-5.5l1.73-1.73l8.07-2.11l0.19-1.54h-19.61
		h-3.08h-19.61l0.19,1.54l8.07,2.11l1.73,1.73v5.5c-2.38,1.07-4.03,3.45-4.03,6.23c0,1.74,0.65,3.33,1.72,4.53l-21.81,46.4h3.59
		l15.98-30.73c1.2,1.74,3.21,2.88,5.48,2.88c0.42,0,0.83-0.04,1.22-0.11v3.94h-4.66v15.18h-2.11v10.19h-24.98v0.67l-17.48,14.16
		l-11.92,42.02l-5.52-14.55l3.64-33.14l18.8-11.45v-29.39l-114.03,20.49l-95.02-9.8v32.66l22.57,12.28v18.35h-14.91
		c-6.13-0.77-18.6-2.29-24.74-2.96l-41.06-37.97l0.72-0.23l-2.77-4.7l-3.73,3.42l0.46,0.66c-3.76,1.37-13.96,4.8-28.27,7.55l0-0.14
		c-0.15,0.03-0.29,0.04-0.44,0.05l0,0.18c-8.2,1.55-17.73,2.88-28.16,3.45V392c-0.15,0-0.3-0.02-0.44-0.05v0.14
		c-3.48,0.19-7.05,0.29-10.71,0.29c-5.63,0-11.46-0.24-17.42-0.79l0-0.04c-0.05,0-0.11,0.01-0.16,0.01c-0.09,0-0.19-0.01-0.28-0.02
		v0c-4.65-0.44-9.39-1.07-14.19-1.92c-0.03-0.01-0.06-0.02-0.08-0.03v0.01c-10.19-1.81-20.63-4.62-31.08-8.73l0.38-0.55l-3.73-3.42
		l-2.77,4.7l0.22,0.07l-47.72,43.27c18.27-2.09,37.75-3.72,56.08-4.84c-0.41-1.41-0.82-2.87-1.22-4.37
		c-13.79,0.85-27.56,1.98-41.31,3.38l36.02-36.87l0.3,0.1c2.82,31.21,14.26,57.99,16.23,62.41h-2.64v2.66h7.98v-2.66h-2.86l0-0.01
		c0,0-7.33-30.89-15.81-62.64l0.47-0.68c5.82,2.3,11.65,4.19,17.43,5.74l-0.23,0l-0.2,27.73c-2.58,0.12-5.16,0.25-7.75,0.39
		c0.38,1.5,0.74,2.96,1.1,4.38c37.05-1.99,74.19-1.99,111.24,0c0.35-1.42,0.72-2.88,1.1-4.38c-1.74-0.1-3.48-0.18-5.22-0.27
		l0.21-29.06c7.05-1.85,12.04-3.57,14.35-4.42l0.39,0.56c-8.48,31.75-15.82,62.64-15.82,62.64l0,0.01h-2.87v2.66h7.98v-2.66h-2.64
		c1.96-4.41,13.37-31.11,16.22-62.26l35.72,36.56c-13.55-1.37-27.11-2.48-40.69-3.32c-0.4,1.5-0.81,2.95-1.22,4.37
		c15.61,0.95,31.2,2.26,46.76,3.92l0.09,0.09l0.07-0.07c5.84,0.62,11.67,1.3,17.5,2.02l-19.07,21.36H1349.71z M1272.66,350.4h1.36
		v14.23h-1.36V350.4z M1268.64,350.4h2.95v14.23h-2.95V350.4z M1266.34,350.4h0.18h0.23h0.13h0.23h0.29v14.23h-0.52h-0.13h-0.41
		V350.4z M1262.03,350.4h3.31v14.23h-3.31V350.4z M1259.61,350.4h1.36v14.23h-1.36V350.4z M1032,395.81l-0.69-52.31l5.48,47.74
		l79.72,4.57h-28.78H1032z M735.86,377.8l-1.11,0.04l0-0.04l-0.08,0l-0.14-3.82l0.01-0.96l0.25-0.24l0.38-0.18l0.34,0.15l0.18,0.27
		L735.86,377.8z M735.63,371.61l-1.04,0.04l0.03-4.14l0.16-0.26l0.39-0.04l0.31,0.24L735.63,371.61z M734.51,362.82l0.25-0.04
		l0.17,0.08l0.12,0.24l0.24,3.35l-0.64,0.02l0-0.04l-0.23,0h0l-0.02-3.25L734.51,362.82z M733.31,363.07l0.11-0.25l0.17-0.08
		l0.25,0.03l0.13,0.36l0.05,3.3l-0.88-0.01L733.31,363.07z M732.97,367.42l0.31-0.25l0.38,0.03l0.16,0.25l0.02,0.47l0.11,3.67
		l-1.04-0.02L732.97,367.42z M732.89,373l0.17-0.28l0.33-0.16l0.38,0.17l0.25,0.23l0,0.12l0.03,0.9l-0.05,3.8l-1.18-0.02L732.89,373
		z M641.07,383.4l-0.06,0.75l-0.71-0.75H641.07z M566.34,355.1h-10.91v-5.82c1.17-1.2,1.9-2.84,1.9-4.65h2.38h2.35h2.38
		c0,1.81,0.72,3.45,1.9,4.65V355.1z M553.13,342.7l1.68-2.51c0.73,0.68,1.29,1.54,1.62,2.51H553.13z M565.34,342.7
		c0.32-0.97,0.89-1.83,1.62-2.51l1.68,2.51H565.34z M567.41,339.83l-0.24,0.16c0.99-0.84,2.25-1.37,3.63-1.43l-0.03,4.14h-1.45
		L567.41,339.83z M576.57,348.39l44.7,86.54L596.5,395.5l-7.91,9.17h0.72l-5.89,30.86l-4.47-65.25h-2.88V355.1h-6.2v-3.94
		c0.4,0.08,0.81,0.11,1.22,0.11C573.37,351.28,575.37,350.13,576.57,348.39z M574.07,332.14l-1.73-3.67h3.14
		C575.42,329.86,574.9,331.14,574.07,332.14z M572.03,322.6c0.91,0.45,1.69,1.12,2.28,1.94l-0.19-0.22l-2.09,1.78V322.6z
		 M572.03,326.85l2.44-2.08c0.6,0.91,0.96,1.98,1.01,3.12h-3.41l-0.04-0.1V326.85z M571.38,338.56c0.03,0,0.05,0,0.08,0.01
		l2.15,4.13h-2.26L571.38,338.56z M564.83,332.6c-0.17-0.17-0.32-0.34-0.47-0.53l0.61,0.03l-0.33,0.28L564.83,332.6z M563.04,327.46
		c0.16-1.33,0.73-2.54,1.59-3.48l3.19,3.44L563.04,327.46z M565.05,323.58c0.82-0.74,1.82-1.29,2.95-1.52v4.7L565.05,323.58z
		 M565.81,332.14l0.74,0.04l2.4,1.72v0.54c-1.5-0.07-2.87-0.67-3.92-1.62L565.81,332.14z M553.77,314.15l7.11-0.16l7.11,0.16v7.32
		c-2.94,0.54-5.22,2.97-5.53,5.99l-1.58,0.01l-1.58-0.01c-0.32-3.01-2.6-5.44-5.53-5.99V314.15z M556.79,332.1l0.61-0.03
		c-0.15,0.18-0.3,0.36-0.47,0.53l0.19-0.22L556.79,332.1z M553.95,327.42l3.19-3.44c0.86,0.94,1.43,2.15,1.59,3.48L553.95,327.42z
		 M553.77,322.07c1.12,0.23,2.13,0.77,2.95,1.52l-2.95,3.18V322.07z M552.81,333.89l2.4-1.72l0.74-0.04l0.78,0.66
		c-1.05,0.95-2.41,1.56-3.92,1.62V333.89z M549.73,322.6v3.49l-2.09-1.78l-0.19,0.22C548.05,323.72,548.83,323.05,549.73,322.6z
		 M547.29,324.77l2.44,2.08v0.95l-0.04,0.1h-3.41C546.33,326.75,546.7,325.68,547.29,324.77z M546.28,328.48h3.14l-1.73,3.67
		C546.86,331.14,546.35,329.86,546.28,328.48z M548.15,342.7l2.15-4.13c0.03,0,0.05,0,0.08-0.01l0.03,4.14H548.15z M550.61,337.97
		l1.55-2.97c0.02,0,0.05,0,0.07,0v0.01h0.58V335c2.22-0.09,4.16-1.24,5.34-2.96l2.73-0.13l2.73,0.13c1.18,1.72,3.12,2.87,5.34,2.96
		v0.01h0.58V335c0.03,0,0.05,0,0.07,0l1.55,2.97c-0.02,0-0.04,0-0.06,0c-3.01,0-5.54,1.99-6.37,4.73h-2.66h-2.35h-2.66
		c-0.83-2.74-3.36-4.73-6.37-4.73C550.65,337.97,550.63,337.97,550.61,337.97z M550.99,342.7l-0.03-4.14
		c1.38,0.07,2.64,0.59,3.63,1.43l-0.24-0.16l-1.91,2.87H550.99z M485.3,391.8l-2.87,22.31l-7-16.29L485.3,391.8z M469.07,401.69
		l2.83-1.72l8.9,22.8h-11.73V401.69z M62.8,419.24c-1.67,0.17-3.34,0.35-5.01,0.53l40.94-37.86l0.41,0.13L62.8,419.24z
		 M101.11,385.68c-0.1,0.03-0.2-0.04-0.23-0.14c-0.02-0.1,0.04-0.2,0.14-0.23c0.1-0.03,0.2,0.04,0.23,0.14
		C101.27,385.55,101.21,385.65,101.11,385.68z M101.75,388.6c-0.15,0.04-0.31-0.05-0.34-0.21c-0.04-0.15,0.05-0.3,0.21-0.34
		c0.15-0.04,0.31,0.05,0.34,0.2C102,388.41,101.9,388.56,101.75,388.6z M101.94,391.25c-0.05-0.2,0.07-0.41,0.27-0.46
		c0.2-0.05,0.41,0.07,0.46,0.27c0.05,0.2-0.07,0.41-0.27,0.46C102.19,391.57,101.99,391.45,101.94,391.25z M114.58,438.84
		c0.1-0.02,0.2,0.03,0.23,0.14c0.03,0.1-0.04,0.2-0.14,0.23c-0.1,0.03-0.2-0.03-0.23-0.14
		C114.42,438.97,114.48,438.87,114.58,438.84z M113.75,435.97c0.15-0.04,0.3,0.05,0.34,0.2c0.04,0.15-0.05,0.31-0.2,0.34
		c-0.15,0.04-0.3-0.05-0.34-0.21C113.51,436.16,113.6,436.01,113.75,435.97z M112.93,433.09c0.2-0.05,0.41,0.07,0.46,0.27
		c0.05,0.2-0.07,0.41-0.27,0.46c-0.2,0.05-0.41-0.07-0.46-0.27C112.6,433.35,112.72,433.14,112.93,433.09z M112.67,430.56
		c0.06,0.25-0.09,0.51-0.34,0.57c-0.25,0.06-0.51-0.09-0.57-0.34c-0.06-0.25,0.09-0.51,0.34-0.57
		C112.35,430.15,112.61,430.3,112.67,430.56z M111.96,427.75c0.08,0.3-0.11,0.61-0.41,0.69c-0.3,0.08-0.61-0.1-0.69-0.41
		c-0.08-0.3,0.11-0.61,0.41-0.69C111.58,427.26,111.88,427.45,111.96,427.75z M111.25,424.94c0.09,0.35-0.12,0.71-0.48,0.8
		c-0.35,0.09-0.71-0.13-0.8-0.48c-0.09-0.35,0.12-0.71,0.48-0.8C110.8,424.37,111.16,424.59,111.25,424.94z M110.54,422.13
		c0.1,0.4-0.14,0.81-0.55,0.92c-0.4,0.1-0.81-0.14-0.92-0.55c-0.1-0.4,0.14-0.82,0.55-0.92
		C110.03,421.48,110.44,421.73,110.54,422.13z M109.83,419.32c0.11,0.46-0.16,0.92-0.62,1.03c-0.45,0.11-0.92-0.16-1.03-0.62
		c-0.11-0.45,0.16-0.92,0.62-1.03C109.25,418.6,109.71,418.87,109.83,419.32z M109.12,416.52c0.13,0.51-0.18,1.02-0.68,1.15
		c-0.5,0.13-1.02-0.18-1.15-0.68c-0.13-0.5,0.18-1.02,0.68-1.15C108.48,415.71,108.99,416.01,109.12,416.52z M108.4,413.71
		c0.14,0.56-0.2,1.12-0.75,1.26c-0.56,0.14-1.12-0.2-1.26-0.75c-0.14-0.56,0.2-1.12,0.75-1.26
		C107.7,412.82,108.26,413.15,108.4,413.71z M107.65,410.72c0.14,0.55-0.2,1.12-0.75,1.26c-0.56,0.14-1.12-0.2-1.26-0.75
		c-0.14-0.56,0.19-1.12,0.75-1.26C106.94,409.83,107.51,410.17,107.65,410.72z M106.94,407.91c0.13,0.5-0.18,1.02-0.68,1.15
		c-0.51,0.13-1.02-0.18-1.15-0.68c-0.13-0.5,0.18-1.02,0.68-1.15C106.3,407.1,106.81,407.41,106.94,407.91z M106.22,405.1
		c0.12,0.46-0.16,0.92-0.61,1.03c-0.46,0.12-0.92-0.16-1.03-0.61c-0.11-0.46,0.16-0.92,0.61-1.03
		C105.65,404.38,106.11,404.65,106.22,405.1z M105.51,402.3c0.1,0.4-0.14,0.81-0.55,0.92c-0.4,0.1-0.81-0.14-0.92-0.55
		c-0.1-0.4,0.14-0.81,0.55-0.92C105,401.65,105.41,401.89,105.51,402.3z M104.8,399.49c0.09,0.36-0.12,0.71-0.48,0.8
		c-0.35,0.09-0.71-0.12-0.8-0.48c-0.09-0.35,0.12-0.71,0.48-0.8C104.35,398.92,104.71,399.14,104.8,399.49z M104.09,396.68
		c0.08,0.3-0.11,0.61-0.41,0.69c-0.3,0.08-0.61-0.11-0.69-0.41c-0.08-0.3,0.11-0.61,0.41-0.69
		C103.71,396.19,104.01,396.38,104.09,396.68z M103.38,393.87c0.06,0.25-0.09,0.51-0.34,0.57c-0.25,0.07-0.51-0.09-0.57-0.34
		c-0.06-0.25,0.09-0.51,0.34-0.57C103.06,393.47,103.32,393.62,103.38,393.87z M134.82,414.33c-4.62,0.15-9.23,0.34-13.85,0.56
		l0.2-27.66c4.64,1.23,9.26,2.24,13.82,3.05L134.82,414.33z M149.11,413.96c-4.62,0.09-9.23,0.21-13.85,0.36l0.17-23.96
		c4.67,0.82,9.29,1.42,13.83,1.85L149.11,413.96z M163.4,413.77c-4.62,0.03-9.23,0.09-13.85,0.18l0.15-21.69
		c4.71,0.43,9.33,0.68,13.84,0.76L163.4,413.77z M177.68,413.79c-4.61-0.04-9.23-0.04-13.84-0.02l0.15-20.75
		c1.05,0.02,2.1,0.03,3.14,0.03c3.66,0,7.23-0.1,10.7-0.29L177.68,413.79z M191.97,414c-4.61-0.1-9.23-0.17-13.84-0.21l0.15-21.05
		c4.83-0.27,9.46-0.69,13.85-1.22L191.97,414z M206.26,414.41c-4.61-0.16-9.23-0.3-13.84-0.4l0.16-22.55
		c4.94-0.61,9.58-1.35,13.86-2.16L206.26,414.41z M220.54,415.01c-4.61-0.23-9.23-0.42-13.84-0.59l0.18-25.21
		c5.2-0.99,9.86-2.08,13.87-3.12L220.54,415.01z M224.32,439.21c-0.1-0.03-0.16-0.13-0.14-0.23c0.03-0.1,0.13-0.16,0.23-0.14
		c0.1,0.03,0.16,0.13,0.14,0.23C224.52,439.18,224.42,439.24,224.32,439.21z M225.1,436.52c-0.15-0.04-0.24-0.19-0.21-0.34
		c0.04-0.15,0.19-0.24,0.34-0.2c0.15,0.04,0.24,0.19,0.21,0.34C225.4,436.46,225.25,436.55,225.1,436.52z M226.33,433.55
		c-0.05,0.2-0.26,0.33-0.46,0.27c-0.2-0.05-0.32-0.26-0.27-0.46c0.05-0.2,0.26-0.33,0.46-0.27
		C226.26,433.14,226.39,433.35,226.33,433.55z M227.23,430.79c-0.06,0.25-0.32,0.41-0.57,0.34c-0.25-0.07-0.4-0.32-0.34-0.57
		c0.06-0.25,0.32-0.41,0.57-0.34C227.14,430.28,227.29,430.54,227.23,430.79z M228.12,428.03c-0.08,0.3-0.39,0.49-0.69,0.41
		c-0.3-0.08-0.49-0.39-0.41-0.69c0.08-0.3,0.39-0.49,0.69-0.41C228.02,427.42,228.2,427.72,228.12,428.03z M229.02,425.26
		c-0.09,0.35-0.45,0.57-0.8,0.48c-0.35-0.09-0.57-0.45-0.48-0.8c0.09-0.35,0.45-0.57,0.8-0.48
		C228.89,424.55,229.11,424.91,229.02,425.26z M229.91,422.5c-0.1,0.4-0.51,0.65-0.92,0.55c-0.4-0.1-0.65-0.51-0.55-0.92
		c0.1-0.4,0.51-0.65,0.92-0.55C229.77,421.69,230.01,422.1,229.91,422.5z M230.81,419.74c-0.12,0.46-0.58,0.73-1.03,0.62
		c-0.45-0.12-0.73-0.58-0.61-1.03c0.11-0.45,0.58-0.73,1.03-0.61C230.65,418.83,230.92,419.29,230.81,419.74z M231.7,416.98
		c-0.13,0.5-0.64,0.81-1.15,0.68c-0.5-0.13-0.81-0.64-0.68-1.15c0.13-0.51,0.64-0.81,1.15-0.68
		C231.52,415.96,231.83,416.48,231.7,416.98z M232.59,414.22c-0.14,0.56-0.71,0.89-1.26,0.75c-0.56-0.14-0.89-0.71-0.75-1.26
		c0.14-0.56,0.71-0.89,1.26-0.75C232.4,413.1,232.73,413.66,232.59,414.22z M233.35,411.23c-0.14,0.55-0.7,0.89-1.26,0.75
		c-0.56-0.14-0.89-0.71-0.75-1.26c0.14-0.56,0.7-0.89,1.26-0.75C233.16,410.11,233.49,410.68,233.35,411.23z M233.88,408.38
		c-0.13,0.5-0.64,0.81-1.15,0.68c-0.51-0.13-0.81-0.64-0.68-1.15c0.13-0.51,0.64-0.81,1.15-0.68
		C233.7,407.36,234.01,407.87,233.88,408.38z M234.41,405.52c-0.12,0.45-0.58,0.73-1.03,0.61c-0.45-0.11-0.73-0.58-0.61-1.03
		c0.11-0.46,0.58-0.73,1.03-0.62C234.25,404.61,234.52,405.07,234.41,405.52z M234.94,402.67c-0.1,0.4-0.51,0.65-0.92,0.55
		c-0.4-0.1-0.65-0.51-0.55-0.92c0.1-0.4,0.51-0.65,0.92-0.55C234.79,401.85,235.04,402.26,234.94,402.67z M235.47,399.81
		c-0.09,0.35-0.45,0.57-0.8,0.48c-0.35-0.09-0.57-0.45-0.48-0.8c0.09-0.35,0.45-0.57,0.8-0.48
		C235.34,399.1,235.55,399.46,235.47,399.81z M235.99,396.96c-0.08,0.3-0.38,0.49-0.69,0.41c-0.3-0.08-0.49-0.39-0.41-0.69
		c0.08-0.3,0.39-0.49,0.69-0.41C235.89,396.35,236.07,396.66,235.99,396.96z M236.52,394.1c-0.06,0.25-0.32,0.41-0.57,0.34
		c-0.25-0.06-0.4-0.32-0.34-0.57c0.06-0.25,0.32-0.41,0.57-0.34C236.43,393.6,236.59,393.85,236.52,394.1z M237.05,391.25
		c-0.05,0.2-0.26,0.32-0.46,0.27c-0.2-0.05-0.32-0.26-0.27-0.46c0.05-0.2,0.26-0.33,0.46-0.27
		C236.98,390.84,237.1,391.05,237.05,391.25z M237.23,388.6c-0.15-0.04-0.24-0.19-0.21-0.34c0.04-0.15,0.19-0.24,0.34-0.2
		c0.15,0.04,0.24,0.19,0.21,0.34C237.54,388.55,237.39,388.64,237.23,388.6z M237.88,385.68c-0.1-0.03-0.16-0.13-0.14-0.23
		c0.03-0.1,0.13-0.16,0.23-0.14c0.1,0.03,0.16,0.13,0.14,0.23C238.08,385.64,237.98,385.7,237.88,385.68z M275.56,419.17l-36.15-37
		l0.33-0.11l40.68,37.62C278.81,419.51,277.18,419.34,275.56,419.17z"/>
	<path d="M1209.21,208.43c4.44,0,8.45-0.26,9.22-0.26c1.62,0,5.04,0.26,10.59,0.26c1.2,0,1.96-0.17,1.96-0.85
		c0-0.51-0.51-0.68-1.45-0.68c-1.37,0-2.99-0.09-4.44-0.6c-1.71-0.6-2.82-2.82-2.99-9.48l-0.94-35.86h0.25
		c1.54,1.62,11.01,12.29,20.32,21.52c8.88,8.79,19.81,19.98,25.19,25.1c0.94,0.94,1.96,1.88,2.9,1.88c0.77,0,1.11-0.77,1.11-2.65
		l0.94-53.87c0.09-4.78,0.77-6.57,3.16-7.26c1.02-0.26,1.71-0.26,2.56-0.26c1.02,0,1.54-0.26,1.54-0.77c0-0.68-0.85-0.77-1.96-0.77
		c-4.18,0-7.43,0.26-8.37,0.26c-1.79,0-5.89-0.26-10.33-0.26c-1.28,0-2.22,0.09-2.22,0.77c0,0.51,0.34,0.77,1.37,0.77
		c1.2,0,3.25,0,4.53,0.51c2.05,0.85,2.82,2.48,2.9,7.68l0.85,38.33h-0.43c-1.45-1.36-12.98-13.66-18.78-19.47
		c-12.46-12.38-25.44-26.3-26.47-27.41c-1.45-1.54-2.22-2.65-3.16-2.65c-0.85,0-1.11,1.2-1.11,2.9l-0.77,50.54
		c-0.09,7.43-0.43,9.9-2.65,10.59c-1.19,0.34-2.73,0.43-3.84,0.43c-0.85,0-1.37,0.17-1.37,0.68
		C1207.34,208.34,1208.1,208.43,1209.21,208.43z"/>
	<path d="M1156.2,145.42c1.19,0,2.65,0.09,3.33,0.26c2.82,0.6,3.5,1.96,3.67,4.87c0.17,2.73,0.17,5.12,0.17,18.1v15.03
		c0,7.86,0,14.6-0.43,18.19c-0.34,2.48-0.77,4.35-2.48,4.7c-0.77,0.17-1.79,0.34-3.07,0.34c-1.02,0-1.37,0.26-1.37,0.68
		c0,0.6,0.6,0.85,1.71,0.85c1.71,0,3.93-0.17,5.89-0.17c2.05-0.09,3.93-0.09,4.87-0.09c2.56,0,5.21,0.09,8.88,0.26
		c3.67,0.09,8.37,0.26,14.77,0.26c3.25,0,4.01,0,4.61-2.22c0.43-1.71,1.11-7.51,1.11-9.48c0-0.86,0-1.54-0.68-1.54
		c-0.6,0-0.77,0.34-0.94,1.28c-0.6,3.5-1.62,5.29-3.84,6.32c-2.22,1.02-5.81,1.02-8.03,1.02c-8.71,0-10.08-1.28-10.25-7.17
		c-0.09-2.48,0-10.33,0-13.23v-6.75c0-0.51,0.08-0.85,0.51-0.85c2.05,0,10.5,0.09,12.12,0.26c3.16,0.34,4.35,1.62,4.78,3.33
		c0.26,1.11,0.26,2.22,0.34,3.07c0,0.43,0.17,0.77,0.77,0.77c0.77,0,0.77-0.94,0.77-1.62c0-0.6,0.26-4.01,0.34-5.72
		c0.34-4.35,0.68-5.72,0.68-6.23c0-0.51-0.26-0.68-0.6-0.68c-0.43,0-0.77,0.43-1.37,1.11c-0.77,0.85-2.05,1.11-4.1,1.28
		c-1.96,0.17-11.78,0.17-13.66,0.17c-0.51,0-0.6-0.34-0.6-0.94v-21.6c0-0.6,0.17-0.85,0.6-0.85c1.71,0,10.67,0.17,12.12,0.34
		c4.27,0.51,5.12,1.54,5.72,3.07c0.43,1.02,0.51,2.48,0.51,3.07c0,0.77,0.17,1.19,0.77,1.19c0.6,0,0.77-0.51,0.85-0.94
		c0.17-1.02,0.34-4.78,0.43-5.64c0.26-3.93,0.68-4.95,0.68-5.55c0-0.43-0.09-0.77-0.51-0.77s-0.94,0.26-1.37,0.34
		c-0.68,0.17-2.05,0.34-3.67,0.51c-1.62,0.09-18.61,0.09-21.34,0.09c-1.2,0-3.16-0.09-5.38-0.17c-2.13,0-4.61-0.09-6.92-0.09
		c-1.28,0-1.88,0.17-1.88,0.77C1154.75,145.25,1155.26,145.42,1156.2,145.42z"/>
	<path d="M1002.88,145.42c1.19,0,2.65,0.09,3.33,0.26c2.82,0.6,3.5,1.96,3.67,4.87c0.17,2.73,0.17,5.12,0.17,18.1v15.03
		c0,7.86,0,14.6-0.43,18.19c-0.34,2.48-0.77,4.35-2.48,4.7c-0.77,0.17-1.79,0.34-3.08,0.34c-1.02,0-1.37,0.26-1.37,0.68
		c0,0.6,0.6,0.85,1.71,0.85c1.71,0,3.93-0.17,5.89-0.17c2.05-0.09,3.93-0.09,4.87-0.09c2.56,0,5.21,0.09,8.88,0.26
		c3.67,0.09,8.37,0.26,14.77,0.26c3.24,0,4.01,0,4.61-2.22c0.43-1.71,1.11-7.51,1.11-9.48c0-0.86,0-1.54-0.68-1.54
		c-0.6,0-0.77,0.34-0.94,1.28c-0.6,3.5-1.62,5.29-3.84,6.32s-5.81,1.02-8.03,1.02c-8.71,0-10.08-1.28-10.25-7.17
		c-0.08-2.48,0-10.33,0-13.23v-6.75c0-0.51,0.09-0.85,0.51-0.85c2.05,0,10.5,0.09,12.12,0.26c3.16,0.34,4.35,1.62,4.78,3.33
		c0.26,1.11,0.26,2.22,0.34,3.07c0,0.43,0.17,0.77,0.77,0.77c0.77,0,0.77-0.94,0.77-1.62c0-0.6,0.26-4.01,0.34-5.72
		c0.34-4.35,0.68-5.72,0.68-6.23c0-0.51-0.26-0.68-0.6-0.68c-0.43,0-0.77,0.43-1.37,1.11c-0.77,0.85-2.05,1.11-4.1,1.28
		c-1.96,0.17-11.78,0.17-13.66,0.17c-0.51,0-0.6-0.34-0.6-0.94v-21.6c0-0.6,0.17-0.85,0.6-0.85c1.71,0,10.67,0.17,12.12,0.34
		c4.27,0.51,5.12,1.54,5.72,3.07c0.43,1.02,0.51,2.48,0.51,3.07c0,0.77,0.17,1.19,0.77,1.19c0.6,0,0.77-0.51,0.85-0.94
		c0.17-1.02,0.34-4.78,0.43-5.64c0.26-3.93,0.68-4.95,0.68-5.55c0-0.43-0.09-0.77-0.51-0.77c-0.43,0-0.94,0.26-1.37,0.34
		c-0.68,0.17-2.05,0.34-3.67,0.51c-1.62,0.09-18.61,0.09-21.34,0.09c-1.2,0-3.16-0.09-5.38-0.17c-2.13,0-4.61-0.09-6.92-0.09
		c-1.28,0-1.88,0.17-1.88,0.77C1001.43,145.25,1001.94,145.42,1002.88,145.42z"/>
	<path d="M1059.31,207.4c3.67,1.62,7.51,2.22,12.47,2.22c4.52,0,9.3-0.77,13.57-3.5c6.15-4.01,8.03-9.9,8.03-14.85
		c0-8.11-3.67-14-14-21.77l-2.39-1.79c-7.09-5.38-9.05-8.37-9.05-12.29c0-5.12,3.84-8.79,10.16-8.79c5.55,0,8.02,2.56,9.3,4.18
		c1.79,2.22,2.22,4.87,2.22,5.64c0,1.02,0.26,1.54,0.85,1.54c0.68,0,0.94-0.68,0.94-2.56c0-6.66,0.34-9.13,0.34-10.25
		c0-0.6-0.43-0.85-1.2-1.02c-2.22-0.6-5.81-1.45-11.36-1.45c-11.87,0-19.72,6.74-19.72,16.14c0,6.92,3.24,12.89,12.63,20.23
		l3.93,3.07c7.09,5.55,8.37,9.48,8.37,13.66c0,4.52-3.76,9.73-11.44,9.73c-5.29,0-10.33-2.31-12.21-8.62
		c-0.43-1.45-0.77-3.24-0.77-4.35c0-0.68-0.09-1.45-0.85-1.45c-0.68,0-0.94,0.94-1.02,2.22c-0.08,1.37-0.43,6.49-0.43,11.18
		C1057.68,206.38,1057.94,206.81,1059.31,207.4z"/>
	<path d="M1108.99,207.4c3.67,1.62,7.51,2.22,12.47,2.22c4.53,0,9.31-0.77,13.58-3.5c6.15-4.01,8.02-9.9,8.02-14.85
		c0-8.11-3.67-14-14-21.77l-2.39-1.79c-7.09-5.38-9.05-8.37-9.05-12.29c0-5.12,3.84-8.79,10.16-8.79c5.55,0,8.03,2.56,9.31,4.18
		c1.79,2.22,2.22,4.87,2.22,5.64c0,1.02,0.26,1.54,0.85,1.54c0.68,0,0.94-0.68,0.94-2.56c0-6.66,0.34-9.13,0.34-10.25
		c0-0.6-0.43-0.85-1.19-1.02c-2.22-0.6-5.81-1.45-11.36-1.45c-11.87,0-19.72,6.74-19.72,16.14c0,6.92,3.25,12.89,12.64,20.23
		l3.93,3.07c7.09,5.55,8.37,9.48,8.37,13.66c0,4.52-3.76,9.73-11.44,9.73c-5.29,0-10.33-2.31-12.21-8.62
		c-0.43-1.45-0.77-3.24-0.77-4.35c0-0.68-0.08-1.45-0.85-1.45c-0.68,0-0.94,0.94-1.02,2.22c-0.09,1.37-0.43,6.49-0.43,11.18
		C1107.37,206.38,1107.63,206.81,1108.99,207.4z"/>
</g>
</svg>
