<?xml version="1.0" standalone="no"?>
<!DOCTYPE svg PUBLIC "-//W3C//DTD SVG 20010904//EN"
 "http://www.w3.org/TR/2001/REC-SVG-20010904/DTD/svg10.dtd">
<svg version="1.0" xmlns="http://www.w3.org/2000/svg"
 width="300.000000pt" height="112.000000pt" viewBox="0 0 300.000000 112.000000"
 preserveAspectRatio="xMidYMid meet">
<metadata>
Created by potrace 1.10, written by Peter Selinger 2001-2011
</metadata>
<g transform="translate(0.000000,112.000000) scale(0.100000,-0.100000)"
fill="#000000" stroke="none">
<path d="M638 761 c6 -172 -21 -352 -62 -413 -12 -18 -28 -33 -35 -33 -17 0
-39 71 -47 150 -3 33 -7 76 -9 95 -2 19 -7 69 -11 110 -11 128 -36 171 -109
183 l-30 5 -3 -116 c-1 -64 -9 -157 -17 -207 -8 -49 -17 -125 -21 -167 l-7
-77 27 -11 c15 -5 29 -10 32 -10 3 0 4 24 3 53 -1 28 1 62 5 75 5 15 3 22 -6
22 -9 0 -9 3 -2 8 17 11 28 112 12 112 -9 0 -9 3 2 10 8 5 11 12 7 16 -4 4 -2
12 3 19 5 6 12 45 15 86 7 82 14 123 20 117 2 -2 11 -71 19 -153 20 -195 33
-265 57 -304 21 -34 78 -65 103 -55 17 6 51 83 61 137 4 20 12 40 17 43 6 4 5
10 -3 14 -9 6 -10 13 -3 22 6 7 10 28 10 46 -1 17 1 32 4 32 3 0 4 44 4 98 -2
187 -3 191 -22 201 -17 9 -18 3 -14 -108z"/>
<path d="M1713 838 c-58 -123 -87 -277 -85 -452 1 -78 9 -101 41 -108 11 -2
13 18 12 112 -1 89 4 141 23 230 22 106 52 197 61 189 4 -5 23 -144 29 -224 8
-88 16 -157 21 -182 6 -25 44 -50 54 -36 3 5 13 12 21 15 10 4 17 20 18 44 5
71 101 304 143 348 13 14 11 -60 -5 -220 -27 -263 -28 -261 1 -284 14 -11 28
-20 32 -20 3 0 6 44 7 98 1 107 7 181 25 317 11 82 10 94 -6 128 -11 24 -26
40 -43 44 -32 8 -68 -31 -114 -127 -43 -90 -41 -85 -72 -182 -15 -49 -29 -88
-31 -88 -1 0 -2 30 0 68 2 64 -14 229 -29 299 -7 32 -47 73 -71 73 -6 0 -21
-19 -32 -42z"/>
<path d="M740 733 c-6 -16 -15 -36 -20 -45 -6 -10 -10 -27 -10 -38 0 -19 3
-22 31 -24 12 -1 51 113 43 126 -11 17 -35 7 -44 -19z"/>
<path d="M849 727 c0 -1 -1 -22 -3 -47 -19 -335 -19 -332 -5 -341 31 -20 42
-11 36 31 -3 22 -1 43 4 46 5 3 26 -11 47 -30 33 -33 69 -45 85 -30 3 3 -18
27 -48 53 l-53 46 32 45 c30 43 37 85 13 77 -7 -2 -25 -22 -42 -45 -34 -46
-48 -53 -40 -19 10 38 22 171 17 189 -3 12 -39 33 -43 25z"/>
<path d="M1054 683 c0 -27 -4 -114 -9 -194 -8 -147 -8 -147 14 -154 34 -11 48
8 34 46 -9 23 -9 66 -1 174 12 152 9 175 -19 175 -15 0 -18 -9 -19 -47z"/>
<path d="M2421 677 c-5 -13 -15 -42 -22 -66 -10 -34 -18 -43 -41 -48 -33 -7
-35 -17 -8 -36 19 -13 20 -19 11 -58 -15 -63 -13 -91 8 -118 12 -16 24 -21 38
-17 26 8 84 92 77 111 -9 23 -18 19 -53 -25 -17 -22 -35 -40 -40 -40 -8 0 15
114 28 140 5 9 39 21 84 30 87 18 97 24 67 40 -20 11 -52 9 -118 -7 l-23 -5
22 45 c19 38 20 48 9 61 -17 22 -29 20 -39 -7z"/>
<path d="M706 469 c-8 -127 -4 -143 34 -136 12 2 15 24 15 127 0 119 -1 125
-21 128 -20 3 -21 -3 -28 -119z"/>
<path d="M1260 548 c0 -20 -1 -20 -18 -5 -10 10 -24 17 -30 17 -19 0 -72 -51
-97 -95 -29 -48 -24 -76 16 -114 41 -38 78 -19 104 55 l13 37 4 -43 c4 -40 2
-44 -35 -67 -31 -20 -36 -27 -27 -39 16 -18 34 -18 50 1 7 8 21 15 31 15 11 0
19 5 19 10 0 6 7 10 15 10 26 0 95 40 95 54 0 24 -27 43 -70 50 -37 6 -41 9
-35 29 9 27 44 56 68 57 20 0 23 20 5 38 -16 16 -36 15 -55 -4 -15 -14 -17
-14 -25 0 -13 23 -28 20 -28 -6z m-14 -43 c-18 -47 -78 -125 -96 -125 -11 0
-20 6 -20 14 0 17 64 102 88 115 25 15 35 13 28 -4z"/>
<path d="M2290 548 c0 -20 -1 -20 -19 -4 -26 24 -53 14 -94 -34 -57 -67 -63
-85 -44 -125 18 -38 56 -61 82 -52 8 4 25 22 36 42 26 44 36 45 31 3 -3 -31
20 -80 32 -67 3 3 8 55 10 117 4 91 2 114 -10 127 -20 20 -24 19 -24 -7z m-11
-35 c0 -5 -17 -35 -37 -68 -25 -40 -45 -61 -60 -63 -30 -5 -28 16 7 65 38 52
93 92 90 66z"/>
<path d="M2605 560 c-11 -5 -32 -11 -47 -14 -29 -7 -36 -24 -17 -43 7 -7 28
-5 71 8 34 11 63 17 66 15 12 -13 -13 -39 -82 -85 -86 -59 -91 -64 -76 -91 13
-24 27 -25 94 -5 28 8 63 17 79 20 15 3 27 9 27 15 0 12 -49 17 -82 8 -40 -10
-35 5 12 36 52 34 73 67 64 100 -10 42 -59 58 -109 36z"/>
</g>
</svg>
